<?xml version="1.0" standalone="no"?>
<!DOCTYPE svg PUBLIC "-//W3C//DTD SVG 20010904//EN"
 "http://www.w3.org/TR/2001/REC-SVG-20010904/DTD/svg10.dtd">
<svg version="1.0" xmlns="http://www.w3.org/2000/svg"
 width="500.000000pt" height="500.000000pt" viewBox="0 0 500.000000 500.000000"
 preserveAspectRatio="xMidYMid meet">
<metadata>
Created by potrace 1.14, written by Peter Selinger 2001-2017
</metadata>
<g transform="translate(0.000000,500.000000) scale(0.100000,-0.100000)"
fill="#000000" stroke="none">
<path d="M0 2500 l0 -2500 2500 0 2500 0 0 2500 0 2500 -2500 0 -2500 0 0
-2500z m482 100 c69 -206 128 -379 130 -383 2 -4 61 165 131 377 l128 386 71
0 c63 0 69 -2 63 -17 -7 -20 -302 -823 -317 -866 -10 -27 -12 -28 -76 -25
l-66 3 -163 445 c-89 245 -163 449 -163 453 0 4 30 7 68 5 l67 -3 127 -375z
m738 315 l0 -65 -55 0 -55 0 0 65 0 65 55 0 55 0 0 -65z m308 -92 l3 -93 49 0
50 0 0 -45 0 -45 -50 0 -50 0 0 -228 c0 -164 3 -231 12 -240 7 -7 29 -12 50
-12 l38 0 0 -45 c0 -43 -1 -44 -35 -51 -54 -10 -119 4 -144 30 -35 38 -41 80
-41 318 l0 228 -45 0 -45 0 0 45 0 45 45 0 45 0 0 88 c0 49 3 92 7 96 4 4 30
6 58 4 l50 -3 3 -92z m609 -92 c22 -11 51 -33 63 -49 l23 -31 47 40 c26 22 62
44 81 49 81 24 177 2 226 -51 49 -54 53 -80 53 -359 l0 -260 -55 0 -55 0 0
243 c0 210 -2 247 -18 277 -47 94 -178 77 -234 -30 l-28 -52 0 -219 0 -219
-55 0 -55 0 0 245 c0 275 -5 302 -59 325 -40 16 -102 8 -140 -19 -16 -12 -40
-42 -53 -69 -22 -44 -23 -60 -26 -264 l-4 -218 -54 0 -54 0 0 330 0 330 55 0
55 0 0 -42 0 -42 38 36 c20 21 53 44 72 52 48 21 127 19 177 -3z m1034 4 c109
-37 189 -180 189 -336 l0 -39 -241 0 -242 0 5 -44 c8 -68 38 -117 88 -143 50
-26 123 -30 173 -9 36 15 97 79 97 101 0 11 13 15 55 15 64 0 66 -4 29 -78
-63 -127 -210 -182 -363 -136 -68 20 -140 86 -172 157 -21 45 -24 67 -24 167
1 139 23 209 90 275 76 76 210 106 316 70z m720 4 c53 -18 99 -58 120 -103 17
-37 19 -69 19 -303 l0 -263 -55 0 -55 0 0 235 c0 249 -5 280 -48 319 -23 20
-96 32 -136 22 -37 -9 -96 -65 -114 -106 -12 -26 -17 -88 -20 -252 l-4 -218
-54 0 -54 0 0 330 0 330 55 0 55 0 0 -43 0 -44 43 42 c24 22 59 46 78 52 46
15 128 16 170 2z m-2671 -339 l0 -330 -55 0 -55 0 0 330 0 330 55 0 55 0 0
-330z m3082 69 l3 -261 34 -30 c31 -28 38 -30 95 -26 76 5 115 30 148 96 22
44 23 61 26 265 l4 217 54 0 54 0 0 -330 0 -330 -55 0 -55 0 0 46 0 46 -26
-32 c-45 -53 -99 -75 -184 -75 -96 0 -152 28 -190 95 -25 44 -25 48 -28 313
l-4 267 61 0 60 0 3 -261z"/>
<path d="M2980 2631 c-46 -24 -90 -87 -97 -139 l-6 -42 182 0 181 0 0 33 c0
18 -10 53 -22 77 -41 80 -157 115 -238 71z"/>
</g>
</svg>
